<svg xmlns="http://www.w3.org/2000/svg" width="1200" height="500" viewBox="0 0 1200 500">
<rect width="1200" height="500" rx="24" fill="#f7fafc"/>
<text x="60" y="58" font-family="Arial,sans-serif" font-size="30" font-weight="700" fill="#0d1b2a">Telecom BTS Solar Power</text>
<text x="60" y="92" font-family="Arial,sans-serif" font-size="18" fill="#4b6070">A simplified view of the power path used for remote telecom sites.</text>
<g font-family="Arial,sans-serif" text-anchor="middle">
<rect x="70" y="190" width="180" height="110" rx="16" fill="#dceeff" stroke="#1a73b8" stroke-width="3"/><text x="160" y="235" font-size="21" font-weight="700" fill="#0d1b2a">Solar Array</text><text x="160" y="267" font-size="16" fill="#425466">PV generation</text>
<rect x="330" y="190" width="190" height="110" rx="16" fill="#eef4fa" stroke="#0d1b2a" stroke-width="3"/><text x="425" y="235" font-size="21" font-weight="700" fill="#0d1b2a">Power Controller</text><text x="425" y="267" font-size="16" fill="#425466">Charge / conversion</text>
<rect x="600" y="130" width="180" height="110" rx="16" fill="#e8f5e9" stroke="#3a9d46" stroke-width="3"/><text x="690" y="175" font-size="21" font-weight="700" fill="#0d1b2a">Battery Bank</text><text x="690" y="207" font-size="16" fill="#425466">Backup storage</text>
<rect x="600" y="290" width="180" height="110" rx="16" fill="#fff4d6" stroke="#d39b1d" stroke-width="3"/><text x="690" y="335" font-size="21" font-weight="700" fill="#0d1b2a">Backup Power</text><text x="690" y="367" font-size="16" fill="#425466">Where required</text>
<rect x="860" y="190" width="270" height="110" rx="16" fill="#eaf0ff" stroke="#315b9a" stroke-width="3"/><text x="995" y="235" font-size="21" font-weight="700" fill="#0d1b2a">Telecom BTS Equipment</text><text x="995" y="267" font-size="16" fill="#425466">Reliable DC / AC supply</text>
</g>
<g stroke="#1a73b8" stroke-width="5" fill="none" marker-end="url(#a)"><path d="M250 245H320"/><path d="M520 225H590"/><path d="M520 275H590"/><path d="M780 245H850"/></g>
<defs><marker id="a" markerWidth="12" markerHeight="12" refX="10" refY="6" orient="auto"><path d="M0,0 L12,6 L0,12 z" fill="#1a73b8"/></marker></defs>
</svg>
